<mxfile host="app.diagrams.net" agent="Mozilla/5.0 (Windows NT 10.0; Win64; x64) AppleWebKit/537.36 (KHTML, like Gecko) Chrome/141.0.0.0 Safari/537.36" version="28.2.5">
  <diagram name="PÃ¡gina-1" id="UXm8pm6BfYqOTmryCX3f">
    <mxGraphModel grid="1" page="1" gridSize="10" guides="1" tooltips="1" connect="1" arrows="1" fold="1" pageScale="1" pageWidth="1169" pageHeight="827" background="light-dark(#FFFFFF,#FFFFFF)" math="0" shadow="0">
      <root>
        <mxCell id="0" />
        <mxCell id="1" parent="0" />
        <mxCell id="3QvORRE1_Y3_OadLAOso-9" value="&lt;font style=&quot;color: light-dark(rgb(0, 0, 0), rgb(0, 0, 0));&quot;&gt;Detection devices&lt;/font&gt;" style="shape=umlActor;verticalLabelPosition=bottom;verticalAlign=top;html=1;outlineConnect=0;strokeWidth=1;strokeColor=light-dark(#000000,#000000);" vertex="1" parent="1">
          <mxGeometry x="980" y="100" width="30" height="60" as="geometry" />
        </mxCell>
        <mxCell id="3QvORRE1_Y3_OadLAOso-15" value="&lt;font style=&quot;color: light-dark(rgb(0, 0, 0), rgb(0, 0, 0));&quot;&gt;Emergency Data&amp;nbsp;&lt;/font&gt;" style="shape=umlActor;verticalLabelPosition=bottom;verticalAlign=top;html=1;outlineConnect=0;strokeWidth=1;strokeColor=light-dark(#000000,#000000);" vertex="1" parent="1">
          <mxGeometry x="10" y="110" width="30" height="60" as="geometry" />
        </mxCell>
        <mxCell id="3QvORRE1_Y3_OadLAOso-16" value="&lt;font style=&quot;color: light-dark(rgb(0, 0, 0), rgb(0, 0, 0));&quot;&gt;Weather conditions&lt;/font&gt;" style="shape=umlActor;verticalLabelPosition=bottom;verticalAlign=top;html=1;outlineConnect=0;strokeWidth=1;strokeColor=light-dark(#000000,#000000);" vertex="1" parent="1">
          <mxGeometry x="190" y="110" width="30" height="60" as="geometry" />
        </mxCell>
        <mxCell id="3QvORRE1_Y3_OadLAOso-17" value="&lt;font style=&quot;color: light-dark(rgb(0, 0, 0), rgb(0, 0, 0));&quot;&gt;Carrier&lt;/font&gt;" style="shape=umlActor;verticalLabelPosition=bottom;verticalAlign=top;html=1;outlineConnect=0;strokeWidth=1;strokeColor=light-dark(#000000,#000000);" vertex="1" parent="1">
          <mxGeometry x="320" y="110" width="30" height="60" as="geometry" />
        </mxCell>
        <mxCell id="3QvORRE1_Y3_OadLAOso-18" value="&lt;font style=&quot;color: light-dark(rgb(0, 0, 0), rgb(0, 0, 0));&quot;&gt;Vehicle&lt;/font&gt;" style="shape=umlActor;verticalLabelPosition=bottom;verticalAlign=top;html=1;outlineConnect=0;strokeWidth=1;strokeColor=light-dark(#000000,#000000);" vertex="1" parent="1">
          <mxGeometry x="570" y="100" width="30" height="60" as="geometry" />
        </mxCell>
        <mxCell id="3QvORRE1_Y3_OadLAOso-26" value="&lt;font style=&quot;color: light-dark(rgb(0, 0, 0), rgb(0, 0, 0));&quot;&gt;Driver&lt;/font&gt;" style="shape=umlActor;verticalLabelPosition=bottom;verticalAlign=top;html=1;outlineConnect=0;strokeWidth=1;strokeColor=light-dark(#000000,#000000);" vertex="1" parent="1">
          <mxGeometry x="780" y="100" width="30" height="60" as="geometry" />
        </mxCell>
        <mxCell id="3QvORRE1_Y3_OadLAOso-28" value="&lt;font style=&quot;color: light-dark(rgb(0, 0, 0), rgb(0, 0, 0));&quot;&gt;Road paths&lt;/font&gt;" style="shape=umlActor;verticalLabelPosition=bottom;verticalAlign=top;html=1;outlineConnect=0;strokeWidth=1;strokeColor=light-dark(#000000,#000000);" vertex="1" parent="1">
          <mxGeometry x="100" y="110" width="30" height="60" as="geometry" />
        </mxCell>
        <mxCell id="lPLpFIpQ3Go8vXcxKRNj-1" value="Navigation Database" style="shape=cylinder3;whiteSpace=wrap;html=1;boundedLbl=1;backgroundOutline=1;size=15;" vertex="1" parent="1">
          <mxGeometry x="180" y="275" width="60" height="80" as="geometry" />
        </mxCell>
        <mxCell id="lPLpFIpQ3Go8vXcxKRNj-9" value="" style="endArrow=classic;html=1;rounded=0;entryX=0.5;entryY=0;entryDx=0;entryDy=0;" edge="1" parent="1">
          <mxGeometry width="50" height="50" relative="1" as="geometry">
            <mxPoint x="587.63" y="180" as="sourcePoint" />
            <mxPoint x="587.63" y="260" as="targetPoint" />
            <Array as="points" />
          </mxGeometry>
        </mxCell>
        <mxCell id="lPLpFIpQ3Go8vXcxKRNj-16" value="Keep active connection to Carrier" style="rounded=0;whiteSpace=wrap;html=1;" vertex="1" parent="1">
          <mxGeometry x="528.12" y="490" width="120" height="60" as="geometry" />
        </mxCell>
        <mxCell id="lPLpFIpQ3Go8vXcxKRNj-17" value="Check for stable connection with carrier" style="rhombus;whiteSpace=wrap;html=1;" vertex="1" parent="1">
          <mxGeometry x="516.25" y="270" width="143.75" height="140" as="geometry" />
        </mxCell>
        <mxCell id="itAviqMM0N82IAPMkFzY-19" style="edgeStyle=orthogonalEdgeStyle;rounded=0;orthogonalLoop=1;jettySize=auto;html=1;entryX=0.5;entryY=1;entryDx=0;entryDy=0;" edge="1" parent="1" source="lPLpFIpQ3Go8vXcxKRNj-18" target="itAviqMM0N82IAPMkFzY-17">
          <mxGeometry relative="1" as="geometry">
            <Array as="points">
              <mxPoint x="800" y="630" />
              <mxPoint x="440" y="630" />
            </Array>
          </mxGeometry>
        </mxCell>
        <mxCell id="lPLpFIpQ3Go8vXcxKRNj-18" value="Warn user that adverse conditions will not be accounted for" style="whiteSpace=wrap;html=1;" vertex="1" parent="1">
          <mxGeometry x="740" y="310" width="120" height="60" as="geometry" />
        </mxCell>
        <mxCell id="lPLpFIpQ3Go8vXcxKRNj-20" value="if false" style="text;html=1;align=center;verticalAlign=middle;resizable=0;points=[];autosize=1;strokeColor=none;fillColor=none;" vertex="1" parent="1">
          <mxGeometry x="670" y="315" width="60" height="30" as="geometry" />
        </mxCell>
        <mxCell id="lPLpFIpQ3Go8vXcxKRNj-22" value="" style="endArrow=classic;html=1;rounded=0;exitX=1;exitY=0.5;exitDx=0;exitDy=0;entryX=0;entryY=0.5;entryDx=0;entryDy=0;" edge="1" parent="1" source="lPLpFIpQ3Go8vXcxKRNj-17" target="lPLpFIpQ3Go8vXcxKRNj-18">
          <mxGeometry width="50" height="50" relative="1" as="geometry">
            <mxPoint x="690" y="460" as="sourcePoint" />
            <mxPoint x="740" y="410" as="targetPoint" />
          </mxGeometry>
        </mxCell>
        <mxCell id="lPLpFIpQ3Go8vXcxKRNj-23" value="" style="endArrow=classic;html=1;rounded=0;entryX=0.5;entryY=0;entryDx=0;entryDy=0;exitX=0.5;exitY=1;exitDx=0;exitDy=0;" edge="1" parent="1" source="lPLpFIpQ3Go8vXcxKRNj-17" target="lPLpFIpQ3Go8vXcxKRNj-16">
          <mxGeometry width="50" height="50" relative="1" as="geometry">
            <mxPoint x="563.75" y="370" as="sourcePoint" />
            <mxPoint x="613.75" y="320" as="targetPoint" />
            <Array as="points" />
          </mxGeometry>
        </mxCell>
        <mxCell id="itAviqMM0N82IAPMkFzY-11" style="edgeStyle=orthogonalEdgeStyle;rounded=0;orthogonalLoop=1;jettySize=auto;html=1;" edge="1" parent="1">
          <mxGeometry relative="1" as="geometry">
            <mxPoint x="320" y="380" as="targetPoint" />
            <mxPoint x="320" y="340.00000000000006" as="sourcePoint" />
            <Array as="points">
              <mxPoint x="320" y="350" />
              <mxPoint x="320" y="350" />
            </Array>
          </mxGeometry>
        </mxCell>
        <mxCell id="lPLpFIpQ3Go8vXcxKRNj-24" value="Send navigation data to Vehicle" style="whiteSpace=wrap;html=1;" vertex="1" parent="1">
          <mxGeometry x="275" y="285" width="105" height="55" as="geometry" />
        </mxCell>
        <mxCell id="lPLpFIpQ3Go8vXcxKRNj-27" value="" style="endArrow=classic;html=1;rounded=0;" edge="1" parent="1">
          <mxGeometry width="50" height="50" relative="1" as="geometry">
            <mxPoint x="334.38" y="200" as="sourcePoint" />
            <mxPoint x="334.38" y="270" as="targetPoint" />
          </mxGeometry>
        </mxCell>
        <mxCell id="lPLpFIpQ3Go8vXcxKRNj-29" value="" style="endArrow=classic;startArrow=classic;html=1;rounded=0;" edge="1" parent="1">
          <mxGeometry width="50" height="50" relative="1" as="geometry">
            <mxPoint x="240" y="270" as="sourcePoint" />
            <mxPoint x="300" y="190" as="targetPoint" />
          </mxGeometry>
        </mxCell>
        <mxCell id="lPLpFIpQ3Go8vXcxKRNj-30" value="Record and monitor sensor/camera readings" style="whiteSpace=wrap;html=1;" vertex="1" parent="1">
          <mxGeometry x="980" y="300" width="120" height="60" as="geometry" />
        </mxCell>
        <mxCell id="lPLpFIpQ3Go8vXcxKRNj-31" value="Update Road and Weather Conditions" style="whiteSpace=wrap;html=1;" vertex="1" parent="1">
          <mxGeometry x="30" y="295" width="100" height="50" as="geometry" />
        </mxCell>
        <mxCell id="lPLpFIpQ3Go8vXcxKRNj-32" value="" style="endArrow=classic;html=1;rounded=0;" edge="1" parent="1">
          <mxGeometry width="50" height="50" relative="1" as="geometry">
            <mxPoint x="190" y="200" as="sourcePoint" />
            <mxPoint x="140" y="280" as="targetPoint" />
          </mxGeometry>
        </mxCell>
        <mxCell id="lPLpFIpQ3Go8vXcxKRNj-36" value="" style="endArrow=classic;html=1;rounded=0;" edge="1" parent="1">
          <mxGeometry width="50" height="50" relative="1" as="geometry">
            <mxPoint x="100" y="200" as="sourcePoint" />
            <mxPoint x="90" y="280" as="targetPoint" />
          </mxGeometry>
        </mxCell>
        <mxCell id="lPLpFIpQ3Go8vXcxKRNj-37" value="" style="endArrow=classic;html=1;rounded=0;" edge="1" parent="1">
          <mxGeometry width="50" height="50" relative="1" as="geometry">
            <mxPoint x="130" y="320" as="sourcePoint" />
            <mxPoint x="170" y="320" as="targetPoint" />
          </mxGeometry>
        </mxCell>
        <mxCell id="lPLpFIpQ3Go8vXcxKRNj-38" value="" style="edgeStyle=none;orthogonalLoop=1;jettySize=auto;html=1;rounded=0;" edge="1" parent="1">
          <mxGeometry width="100" relative="1" as="geometry">
            <mxPoint x="994.55" y="185" as="sourcePoint" />
            <mxPoint x="995.05" y="295" as="targetPoint" />
            <Array as="points" />
          </mxGeometry>
        </mxCell>
        <mxCell id="lPLpFIpQ3Go8vXcxKRNj-40" value="" style="edgeStyle=none;orthogonalLoop=1;jettySize=auto;html=1;rounded=0;" edge="1" parent="1">
          <mxGeometry width="100" relative="1" as="geometry">
            <mxPoint x="20" y="200" as="sourcePoint" />
            <mxPoint x="30" y="280" as="targetPoint" />
            <Array as="points" />
          </mxGeometry>
        </mxCell>
        <mxCell id="itAviqMM0N82IAPMkFzY-5" style="edgeStyle=orthogonalEdgeStyle;rounded=0;orthogonalLoop=1;jettySize=auto;html=1;entryX=0.5;entryY=1;entryDx=0;entryDy=0;exitX=0.5;exitY=1;exitDx=0;exitDy=0;" edge="1" parent="1" source="IFygPY4dbrMgDc8MEezc-3" target="lPLpFIpQ3Go8vXcxKRNj-31">
          <mxGeometry relative="1" as="geometry">
            <Array as="points">
              <mxPoint x="1090" y="640" />
              <mxPoint x="80" y="640" />
            </Array>
          </mxGeometry>
        </mxCell>
        <mxCell id="IFygPY4dbrMgDc8MEezc-3" value="Report Obstacles to Vehicle" style="whiteSpace=wrap;html=1;" vertex="1" parent="1">
          <mxGeometry x="1030" y="384" width="120" height="60" as="geometry" />
        </mxCell>
        <mxCell id="IFygPY4dbrMgDc8MEezc-4" value="" style="endArrow=classic;html=1;rounded=0;exitX=0.5;exitY=1;exitDx=0;exitDy=0;entryX=0.5;entryY=0;entryDx=0;entryDy=0;" edge="1" parent="1" source="lPLpFIpQ3Go8vXcxKRNj-30" target="IFygPY4dbrMgDc8MEezc-3">
          <mxGeometry width="50" height="50" relative="1" as="geometry">
            <mxPoint x="1000" y="380" as="sourcePoint" />
            <mxPoint x="1000" y="400" as="targetPoint" />
            <Array as="points" />
          </mxGeometry>
        </mxCell>
        <mxCell id="IFygPY4dbrMgDc8MEezc-5" value="Enable Program" style="whiteSpace=wrap;html=1;" vertex="1" parent="1">
          <mxGeometry x="680" y="210" width="110" height="60" as="geometry" />
        </mxCell>
        <mxCell id="IFygPY4dbrMgDc8MEezc-6" value="Disable Program" style="whiteSpace=wrap;html=1;" vertex="1" parent="1">
          <mxGeometry x="810" y="210" width="110" height="60" as="geometry" />
        </mxCell>
        <mxCell id="IFygPY4dbrMgDc8MEezc-7" value="" style="endArrow=classic;html=1;rounded=0;entryX=0.5;entryY=0;entryDx=0;entryDy=0;" edge="1" parent="1" target="IFygPY4dbrMgDc8MEezc-6">
          <mxGeometry width="50" height="50" relative="1" as="geometry">
            <mxPoint x="820" y="170" as="sourcePoint" />
            <mxPoint x="870" y="120" as="targetPoint" />
          </mxGeometry>
        </mxCell>
        <mxCell id="IFygPY4dbrMgDc8MEezc-8" value="" style="endArrow=classic;html=1;rounded=0;entryX=0.25;entryY=0;entryDx=0;entryDy=0;" edge="1" parent="1" target="IFygPY4dbrMgDc8MEezc-5">
          <mxGeometry width="50" height="50" relative="1" as="geometry">
            <mxPoint x="760" y="170" as="sourcePoint" />
            <mxPoint x="730" y="200" as="targetPoint" />
          </mxGeometry>
        </mxCell>
        <mxCell id="IFygPY4dbrMgDc8MEezc-9" value="Calculate the vehicle trajectory to follow using provided data" style="whiteSpace=wrap;html=1;" vertex="1" parent="1">
          <mxGeometry x="420" y="210" width="120" height="60" as="geometry" />
        </mxCell>
        <mxCell id="IFygPY4dbrMgDc8MEezc-11" value="" style="endArrow=classic;html=1;rounded=0;" edge="1" parent="1">
          <mxGeometry width="50" height="50" relative="1" as="geometry">
            <mxPoint x="585" y="550" as="sourcePoint" />
            <mxPoint x="210" y="370" as="targetPoint" />
            <Array as="points">
              <mxPoint x="585" y="600" />
              <mxPoint x="210" y="600" />
            </Array>
          </mxGeometry>
        </mxCell>
        <mxCell id="itAviqMM0N82IAPMkFzY-9" style="edgeStyle=orthogonalEdgeStyle;rounded=0;orthogonalLoop=1;jettySize=auto;html=1;" edge="1" parent="1" source="7jkqD4lub-18ZpPo0_L9-8" target="3QvORRE1_Y3_OadLAOso-18">
          <mxGeometry relative="1" as="geometry" />
        </mxCell>
        <mxCell id="7jkqD4lub-18ZpPo0_L9-8" value="Engage trajectory&amp;nbsp;" style="whiteSpace=wrap;html=1;" vertex="1" parent="1">
          <mxGeometry x="390" y="50" width="90" height="45" as="geometry" />
        </mxCell>
        <mxCell id="7jkqD4lub-18ZpPo0_L9-9" value="" style="endArrow=classic;html=1;rounded=0;entryX=0.5;entryY=1;entryDx=0;entryDy=0;" edge="1" parent="1" target="7jkqD4lub-18ZpPo0_L9-8">
          <mxGeometry width="50" height="50" relative="1" as="geometry">
            <mxPoint x="470" y="210" as="sourcePoint" />
            <mxPoint x="440" y="120" as="targetPoint" />
            <Array as="points">
              <mxPoint x="440" y="130" />
            </Array>
          </mxGeometry>
        </mxCell>
        <mxCell id="itAviqMM0N82IAPMkFzY-6" style="edgeStyle=orthogonalEdgeStyle;rounded=0;orthogonalLoop=1;jettySize=auto;html=1;entryX=0.5;entryY=1;entryDx=0;entryDy=0;exitX=0;exitY=0.5;exitDx=0;exitDy=0;" edge="1" parent="1" source="7jkqD4lub-18ZpPo0_L9-10" target="IFygPY4dbrMgDc8MEezc-9">
          <mxGeometry relative="1" as="geometry">
            <Array as="points">
              <mxPoint x="480" y="420" />
            </Array>
          </mxGeometry>
        </mxCell>
        <mxCell id="7jkqD4lub-18ZpPo0_L9-10" value="Send Detection data to Vehicle" style="whiteSpace=wrap;html=1;" vertex="1" parent="1">
          <mxGeometry x="900" y="384" width="120" height="60" as="geometry" />
        </mxCell>
        <mxCell id="7jkqD4lub-18ZpPo0_L9-11" value="" style="endArrow=classic;html=1;rounded=0;entryX=0.5;entryY=0;entryDx=0;entryDy=0;exitX=0.5;exitY=1;exitDx=0;exitDy=0;" edge="1" parent="1" source="lPLpFIpQ3Go8vXcxKRNj-30" target="7jkqD4lub-18ZpPo0_L9-10">
          <mxGeometry width="50" height="50" relative="1" as="geometry">
            <mxPoint x="1000" y="355" as="sourcePoint" />
            <mxPoint x="1050" y="305" as="targetPoint" />
          </mxGeometry>
        </mxCell>
        <mxCell id="itAviqMM0N82IAPMkFzY-14" style="edgeStyle=orthogonalEdgeStyle;rounded=0;orthogonalLoop=1;jettySize=auto;html=1;entryX=0.5;entryY=1;entryDx=0;entryDy=0;" edge="1" parent="1" source="itAviqMM0N82IAPMkFzY-12" target="IFygPY4dbrMgDc8MEezc-9">
          <mxGeometry relative="1" as="geometry" />
        </mxCell>
        <mxCell id="itAviqMM0N82IAPMkFzY-18" style="edgeStyle=orthogonalEdgeStyle;rounded=0;orthogonalLoop=1;jettySize=auto;html=1;entryX=0;entryY=0.75;entryDx=0;entryDy=0;" edge="1" parent="1" source="itAviqMM0N82IAPMkFzY-12" target="itAviqMM0N82IAPMkFzY-17">
          <mxGeometry relative="1" as="geometry" />
        </mxCell>
        <mxCell id="itAviqMM0N82IAPMkFzY-12" value="Check for obstacle or adverse conditions&amp;nbsp;&lt;div&gt;ahead&lt;/div&gt;" style="rhombus;whiteSpace=wrap;html=1;" vertex="1" parent="1">
          <mxGeometry x="246.25" y="390" width="143.75" height="140" as="geometry" />
        </mxCell>
        <mxCell id="itAviqMM0N82IAPMkFzY-16" value="if true" style="text;html=1;align=center;verticalAlign=middle;resizable=0;points=[];autosize=1;strokeColor=none;fillColor=none;" vertex="1" parent="1">
          <mxGeometry x="410" y="430" width="50" height="30" as="geometry" />
        </mxCell>
        <mxCell id="itAviqMM0N82IAPMkFzY-17" value="Update vehicle display" style="whiteSpace=wrap;html=1;" vertex="1" parent="1">
          <mxGeometry x="380" y="510" width="120" height="60" as="geometry" />
        </mxCell>
        <mxCell id="itAviqMM0N82IAPMkFzY-20" style="edgeStyle=orthogonalEdgeStyle;rounded=0;orthogonalLoop=1;jettySize=auto;html=1;entryX=0;entryY=0.3333333333333333;entryDx=0;entryDy=0;entryPerimeter=0;" edge="1" parent="1" source="itAviqMM0N82IAPMkFzY-17" target="3QvORRE1_Y3_OadLAOso-18">
          <mxGeometry relative="1" as="geometry">
            <Array as="points">
              <mxPoint x="400" y="120" />
            </Array>
          </mxGeometry>
        </mxCell>
        <mxCell id="itAviqMM0N82IAPMkFzY-21" value="" style="edgeStyle=none;orthogonalLoop=1;jettySize=auto;html=1;rounded=0;entryX=0.393;entryY=-0.007;entryDx=0;entryDy=0;entryPerimeter=0;" edge="1" parent="1" target="itAviqMM0N82IAPMkFzY-24">
          <mxGeometry width="100" relative="1" as="geometry">
            <mxPoint x="970" y="185" as="sourcePoint" />
            <mxPoint x="730" y="490" as="targetPoint" />
            <Array as="points">
              <mxPoint x="970" y="290" />
              <mxPoint x="887" y="290" />
              <mxPoint x="887" y="390" />
            </Array>
          </mxGeometry>
        </mxCell>
        <mxCell id="KobpRlLP4EUhnX1aVadQ-1" style="edgeStyle=orthogonalEdgeStyle;rounded=0;orthogonalLoop=1;jettySize=auto;html=1;" edge="1" parent="1" source="itAviqMM0N82IAPMkFzY-24" target="itAviqMM0N82IAPMkFzY-17">
          <mxGeometry relative="1" as="geometry">
            <Array as="points">
              <mxPoint x="660" y="550" />
              <mxPoint x="660" y="570" />
            </Array>
          </mxGeometry>
        </mxCell>
        <mxCell id="itAviqMM0N82IAPMkFzY-24" value="Record and monitor live vehicular state" style="whiteSpace=wrap;html=1;" vertex="1" parent="1">
          <mxGeometry x="840" y="500" width="120" height="60" as="geometry" />
        </mxCell>
      </root>
    </mxGraphModel>
  </diagram>
</mxfile>
